<svg xmlns="http://www.w3.org/2000/svg" width="595.28" height="595.281" viewBox="123.305 0 595.28 595.281"><path fill="#F7DF1E" d="M149.497 26.192h542.895v542.897H149.497V26.192z"/><path fill="#2F2B00" d="M292.245 478.688l41.545-25.146c8.015 14.211 15.307 26.232 32.796 26.232 16.764 0 27.333-6.558 27.333-32.064V274.24h51.02v174.193c0 52.839-30.976 76.892-76.166 76.892-40.814 0-64.503-21.137-76.531-46.646m180.406-5.461l41.541-24.053c10.938 17.859 25.148 30.979 50.293 30.979 21.141 0 34.619-10.569 34.619-25.147 0-17.49-13.846-23.687-37.17-33.889l-12.752-5.47c-36.809-15.668-61.227-35.348-61.227-76.891 0-38.264 29.154-67.421 74.709-67.421 32.434 0 55.756 11.3 72.518 40.817l-39.723 25.511c-8.748-15.668-18.219-21.865-32.795-21.865-14.941 0-24.42 9.477-24.42 21.865 0 15.307 9.479 21.502 31.342 30.979l12.752 5.465c43.367 18.586 67.783 37.535 67.783 80.172 0 45.919-36.076 71.062-84.545 71.062-47.375 0-77.986-22.59-92.93-52.109"/></svg>